<svg width="46" height="48" viewBox="0 0 46 48" fill="none" xmlns="http://www.w3.org/2000/svg">
<path d="M37.7436 11.9048H31.1149C30.0533 10 28.5908 8.33333 26.8215 7.14286L30.6667 3.35714L27.3405 0L22.2215 5.16667C21.1364 4.90476 20.0513 4.7619 18.8718 4.7619C17.6923 4.7619 16.6308 4.90476 15.5456 5.16667L10.4031 0L7.07692 3.35714L10.8985 7.14286C9.12923 8.33333 7.69026 10.0238 6.62872 11.9048H0V16.6667H4.93026C4.78872 17.4524 4.71795 18.2381 4.71795 19.0476V21.4286H0V26.1905H4.71795V28.5714C4.71795 29.381 4.78872 30.1667 4.93026 30.9524H0V35.7143H6.62872C10.0492 41.6667 17.1733 44.3095 23.5897 42.0238V40.4762C23.5897 34.4286 27.3877 29.0476 33.0256 27.0238V26.1905H37.7436V21.4286H33.0256V19.0476C33.0256 18.2381 32.9549 17.4524 32.8133 16.6667H37.7436V11.9048ZM23.5897 30.9524H14.1538V26.1905H23.5897V30.9524ZM23.5897 21.4286H14.1538V16.6667H23.5897V21.4286ZM34.7949 48L28.3077 40.8571L31.0441 38.0952L34.7949 41.881L43.2636 33.3333L46 36.6905L34.7949 48Z" fill="#534667"/>
</svg>
