<svg width="17" height="17" viewBox="0 0 17 17" fill="none" xmlns="http://www.w3.org/2000/svg">
<g filter="url(#filter0_f_655_82)">
<circle cx="8.5" cy="8.5" r="4.5" fill="white"/>
</g>
<path d="M9.15749 10.0041C9.37411 8.95457 6.5506 7.48475 7.90415 7.76413C9.2577 8.04351 10.1794 9.12078 9.96276 10.1703C9.74614 11.2198 8.47325 11.8441 7.1197 11.5647C5.76615 11.2853 8.94087 11.0536 9.15749 10.0041Z" fill="#BABCD2"/>
<path d="M7.12056 8.04834C6.93216 9.10271 9.6823 10.4761 8.37218 10.242C7.06208 10.0079 6.15273 8.96344 6.34113 7.90908C6.52952 6.85471 7.7443 6.18975 9.05441 6.42384C10.3645 6.65793 7.30895 6.99398 7.12056 8.04834Z" fill="#8A8DAE"/>
<defs>
<filter id="filter0_f_655_82" x="0" y="0" width="17" height="17" filterUnits="userSpaceOnUse" color-interpolation-filters="sRGB">
<feFlood flood-opacity="0" result="BackgroundImageFix"/>
<feBlend mode="normal" in="SourceGraphic" in2="BackgroundImageFix" result="shape"/>
<feGaussianBlur stdDeviation="2" result="effect1_foregroundBlur_655_82"/>
</filter>
</defs>
</svg>
