<svg width="98" height="44" viewBox="0 0 98 44" fill="none" xmlns="http://www.w3.org/2000/svg">
<path d="M37.592 31.248C36.44 31.248 35.384 31.068 34.424 30.708C33.472 30.356 32.644 29.844 31.94 29.172C31.244 28.5 30.704 27.692 30.32 26.748C29.944 25.804 29.756 24.744 29.756 23.568C29.756 22.464 29.928 21.484 30.272 20.628C30.616 19.772 31.088 19.032 31.688 18.408C32.288 17.784 32.968 17.272 33.728 16.872C34.496 16.472 35.304 16.176 36.152 15.984C37 15.784 37.84 15.684 38.672 15.684C39.896 15.684 41.024 15.864 42.056 16.224C43.088 16.584 43.988 17.1 44.756 17.772C45.524 18.436 46.12 19.236 46.544 20.172C46.968 21.1 47.18 22.14 47.18 23.292C47.18 24.564 46.94 25.696 46.46 26.688C45.98 27.672 45.304 28.504 44.432 29.184C43.56 29.864 42.54 30.376 41.372 30.72C40.212 31.072 38.952 31.248 37.592 31.248ZM38.156 28.104C39.556 28.104 40.676 27.88 41.516 27.432C42.356 26.984 42.964 26.388 43.34 25.644C43.716 24.9 43.904 24.084 43.904 23.196C43.904 22.38 43.768 21.652 43.496 21.012C43.232 20.372 42.86 19.832 42.38 19.392C41.9 18.952 41.344 18.62 40.712 18.396C40.08 18.164 39.4 18.048 38.672 18.048C37.96 18.048 37.28 18.156 36.632 18.372C35.984 18.588 35.408 18.896 34.904 19.296C34.4 19.696 34 20.18 33.704 20.748C33.416 21.316 33.272 21.952 33.272 22.656C33.272 23.496 33.392 24.252 33.632 24.924C33.88 25.588 34.22 26.16 34.652 26.64C35.092 27.112 35.608 27.476 36.2 27.732C36.8 27.98 37.452 28.104 38.156 28.104ZM51.6335 30.396C50.5935 30.172 49.8815 29.648 49.4975 28.824C49.1215 28 48.9335 26.904 48.9335 25.536C48.9335 25.144 48.9415 24.696 48.9575 24.192C48.9815 23.68 49.0135 23.148 49.0535 22.596C49.0935 22.044 49.1375 21.504 49.1855 20.976C49.2335 20.448 49.2815 19.964 49.3295 19.524C49.3775 19.084 49.4215 18.728 49.4615 18.456C49.6215 17.392 49.8575 16.62 50.1695 16.14C50.4815 15.66 50.9055 15.42 51.4415 15.42C51.7855 15.42 52.0415 15.496 52.2095 15.648C52.3775 15.792 52.4895 16 52.5455 16.272C52.6015 16.544 52.6295 16.868 52.6295 17.244C52.6295 17.492 52.6215 17.784 52.6055 18.12C52.5895 18.448 52.5735 18.8 52.5575 19.176C52.5415 19.552 52.5255 19.948 52.5095 20.364C52.4935 20.772 52.4775 21.18 52.4615 21.588C52.4455 21.996 52.4335 22.396 52.4255 22.788C52.4255 23.172 52.4295 23.536 52.4375 23.88C52.4535 24.56 52.4935 25.128 52.5575 25.584C52.6295 26.04 52.7655 26.4 52.9655 26.664C53.1655 26.92 53.4575 27.108 53.8415 27.228C54.2335 27.34 54.7575 27.4 55.4135 27.408C55.9815 27.432 56.5175 27.456 57.0215 27.48C57.5335 27.496 57.9535 27.516 58.2815 27.54C58.7615 27.508 59.1535 27.496 59.4575 27.504C59.7615 27.504 59.9895 27.532 60.1415 27.588C60.2695 27.652 60.3615 27.744 60.4175 27.864C60.4815 27.976 60.5135 28.136 60.5135 28.344C60.5135 28.68 60.4095 28.964 60.2015 29.196C59.9935 29.428 59.7015 29.624 59.3255 29.784C58.9575 29.944 58.5295 30.084 58.0415 30.204C57.5295 30.324 56.9375 30.42 56.2655 30.492C55.5935 30.564 54.9255 30.6 54.2615 30.6C53.9975 30.6 53.7015 30.592 53.3735 30.576C53.0535 30.568 52.7375 30.548 52.4255 30.516C52.1215 30.484 51.8575 30.444 51.6335 30.396ZM67.2129 30.324C66.8369 30.324 66.4689 30.184 66.1089 29.904C65.7569 29.624 65.4169 29.272 65.0889 28.848C64.7689 28.416 64.4729 27.972 64.2009 27.516C63.9609 27.14 63.6929 26.668 63.3969 26.1C63.1089 25.524 62.8129 24.896 62.5089 24.216C62.2049 23.528 61.9129 22.832 61.6329 22.128C61.3529 21.416 61.1009 20.736 60.8769 20.088C60.6529 19.432 60.4729 18.848 60.3369 18.336C60.2089 17.816 60.1449 17.416 60.1449 17.136C60.1449 16.656 60.3049 16.292 60.6249 16.044C60.9529 15.788 61.3649 15.66 61.8609 15.66C62.2929 15.66 62.6649 15.764 62.9769 15.972C63.2889 16.172 63.5209 16.512 63.6729 16.992C63.8329 17.552 64.0129 18.184 64.2129 18.888C64.4209 19.592 64.6329 20.308 64.8489 21.036C65.0729 21.756 65.2929 22.444 65.5089 23.1C65.7249 23.756 65.9209 24.312 66.0969 24.768C66.3529 25.408 66.5809 25.916 66.7809 26.292C66.9809 26.668 67.1569 26.856 67.3089 26.856C67.4769 26.856 67.6969 26.68 67.9689 26.328C68.2489 25.968 68.5569 25.484 68.8929 24.876C69.1569 24.436 69.4329 23.928 69.7209 23.352C70.0169 22.768 70.3169 22.148 70.6209 21.492C70.9249 20.836 71.2209 20.172 71.5089 19.5C71.7969 18.828 72.0609 18.18 72.3009 17.556C72.4689 17.124 72.6569 16.796 72.8649 16.572C73.0729 16.348 73.3049 16.192 73.5609 16.104C73.8249 16.016 74.1089 15.972 74.4129 15.972C74.7169 15.972 74.9849 16.036 75.2169 16.164C75.4489 16.284 75.6289 16.448 75.7569 16.656C75.8929 16.856 75.9609 17.088 75.9609 17.352C75.9609 17.632 75.8689 18.024 75.6849 18.528C75.5089 19.032 75.2689 19.604 74.9649 20.244C74.6689 20.884 74.3289 21.552 73.9449 22.248C73.5689 22.944 73.1769 23.632 72.7689 24.312C72.3689 24.984 71.9769 25.608 71.5929 26.184C71.2169 26.752 70.8769 27.232 70.5729 27.624C70.2049 28.088 69.8289 28.528 69.4449 28.944C69.0689 29.352 68.6929 29.684 68.3169 29.94C67.9409 30.196 67.5729 30.324 67.2129 30.324ZM79.1981 30.156C78.6701 30.156 78.2781 29.964 78.0221 29.58C77.7741 29.196 77.6501 28.7 77.6501 28.092C77.6501 27.836 77.6501 27.476 77.6501 27.012C77.6501 26.548 77.6541 26.016 77.6621 25.416C77.6701 24.816 77.6781 24.18 77.6861 23.508C77.7021 22.836 77.7181 22.16 77.7341 21.48C77.7581 20.8 77.7861 20.152 77.8181 19.536C77.8501 18.92 77.8861 18.372 77.9261 17.892C78.0141 17.116 78.1701 16.568 78.3941 16.248C78.6181 15.928 78.9821 15.768 79.4861 15.768C79.9101 15.768 80.2181 15.932 80.4101 16.26C80.6021 16.58 80.7261 17.02 80.7821 17.58C80.7981 17.924 80.8141 18.356 80.8301 18.876C80.8461 19.396 80.8581 19.964 80.8661 20.58C80.8741 21.196 80.8781 21.828 80.8781 22.476C80.8861 23.116 80.8901 23.736 80.8901 24.336C80.8901 24.928 80.8901 25.468 80.8901 25.956C80.8901 26.436 80.8861 26.82 80.8781 27.108C80.8781 27.868 80.8261 28.472 80.7221 28.92C80.6181 29.36 80.4461 29.676 80.2061 29.868C79.9741 30.06 79.6381 30.156 79.1981 30.156ZM83.8603 30.312C83.5723 30.312 83.3203 30.26 83.1043 30.156C82.8883 30.052 82.7163 29.904 82.5883 29.712C82.4683 29.512 82.4083 29.276 82.4083 29.004C82.4083 28.724 82.4563 28.48 82.5522 28.272C82.6563 28.056 82.7963 27.852 82.9723 27.66C83.1163 27.5 83.3363 27.264 83.6323 26.952C83.9283 26.632 84.2603 26.284 84.6283 25.908C85.0043 25.524 85.3763 25.148 85.7443 24.78C86.1203 24.404 86.4563 24.08 86.7523 23.808C87.1363 23.512 87.4363 23.256 87.6523 23.04C87.8763 22.816 87.9883 22.64 87.9883 22.512C87.9883 22.384 87.9283 22.236 87.8083 22.068C87.6883 21.9 87.4523 21.696 87.1003 21.456C86.8443 21.256 86.5483 21.02 86.2123 20.748C85.8763 20.468 85.5323 20.184 85.1803 19.896C84.8283 19.608 84.4963 19.336 84.1843 19.08C83.8723 18.816 83.6043 18.6 83.3803 18.432C83.1643 18.272 82.9923 18.08 82.8643 17.856C82.7443 17.624 82.6843 17.376 82.6843 17.112C82.6843 16.768 82.7563 16.492 82.9003 16.284C83.0523 16.076 83.2403 15.928 83.4643 15.84C83.6883 15.744 83.9123 15.696 84.1363 15.696C84.4723 15.696 84.7683 15.76 85.0243 15.888C85.2803 16.008 85.5363 16.192 85.7923 16.44C86.0883 16.704 86.4163 17.024 86.7763 17.4C87.1363 17.768 87.5043 18.164 87.8803 18.588C88.2563 19.012 88.6203 19.44 88.9723 19.872C89.2203 20.2 89.4283 20.456 89.5963 20.64C89.7723 20.816 89.9323 20.904 90.0763 20.904C90.1963 20.904 90.3163 20.848 90.4363 20.736C90.5643 20.624 90.7043 20.472 90.8563 20.28C91.0323 20.072 91.2323 19.816 91.4563 19.512C91.6883 19.2 91.9283 18.872 92.1763 18.528C92.4323 18.184 92.6763 17.852 92.9083 17.532C93.1483 17.204 93.3603 16.916 93.5443 16.668C93.8403 16.276 94.1323 15.996 94.4203 15.828C94.7083 15.66 95.0123 15.576 95.3323 15.576C95.8123 15.576 96.1483 15.688 96.3403 15.912C96.5323 16.136 96.6283 16.416 96.6283 16.752C96.6283 16.968 96.5723 17.208 96.4603 17.472C96.3483 17.728 96.1683 18.004 95.9203 18.3C95.6883 18.612 95.4043 18.968 95.0683 19.368C94.7403 19.76 94.4003 20.148 94.0483 20.532C93.6963 20.908 93.3643 21.24 93.0523 21.528C92.7163 21.8 92.4723 22.016 92.3203 22.176C92.1683 22.336 92.0923 22.46 92.0923 22.548C92.0923 22.644 92.1483 22.752 92.2603 22.872C92.3803 22.984 92.5443 23.128 92.7523 23.304C93.4723 23.928 94.1043 24.524 94.6483 25.092C95.1923 25.652 95.6643 26.176 96.0643 26.664C96.4643 27.152 96.8043 27.6 97.0843 28.008C97.2043 28.16 97.2883 28.324 97.3363 28.5C97.3843 28.676 97.4083 28.836 97.4083 28.98C97.4083 29.212 97.3363 29.42 97.1923 29.604C97.0483 29.78 96.8643 29.92 96.6403 30.024C96.4243 30.128 96.1963 30.18 95.9563 30.18C95.6523 30.18 95.3883 30.128 95.1643 30.024C94.9483 29.92 94.7483 29.772 94.5643 29.58C94.3643 29.356 94.1203 29.056 93.8323 28.68C93.5443 28.296 93.2403 27.896 92.9203 27.48C92.6083 27.056 92.3083 26.656 92.0203 26.28C91.7403 25.904 91.5003 25.604 91.3003 25.38C91.0363 25.044 90.8123 24.8 90.6283 24.648C90.4523 24.496 90.2963 24.42 90.1603 24.42C90.0243 24.42 89.8603 24.508 89.6683 24.684C89.4843 24.86 89.2443 25.14 88.9483 25.524C88.5563 26.004 88.2083 26.428 87.9043 26.796C87.6003 27.156 87.3163 27.492 87.0523 27.804C86.7883 28.116 86.5123 28.436 86.2243 28.764C85.9363 29.084 85.6043 29.448 85.2283 29.856C85.0763 29.984 84.8923 30.092 84.6763 30.18C84.4603 30.268 84.1883 30.312 83.8603 30.312Z" fill="white"/>
<path d="M5.25777 14.035C5.25777 21.7863 24.8395 28.07 16.0019 28.07C7.1643 28.07 0 21.7863 0 14.035C0 6.28368 7.1643 0 16.0019 0C24.8395 0 5.25777 6.28368 5.25777 14.035Z" fill="#D8F278"/>
<path d="M22.7168 28.7639C22.8834 36.5134 0.740853 43.2745 10.7951 43.0584C20.8494 42.8422 28.865 36.3848 28.6984 28.6353C28.5318 20.8857 20.2462 14.7787 10.1919 14.9948C0.137607 15.211 22.5502 21.0143 22.7168 28.7639Z" fill="white"/>
</svg>
