<svg width="12" height="5" viewBox="0 0 12 5" fill="none" xmlns="http://www.w3.org/2000/svg">
<path d="M2.1751 2.75829C2.32432 2.03532 0.379284 1.02281 1.31171 1.21526C2.24413 1.40772 2.87905 2.14982 2.72983 2.87279C2.58061 3.59575 1.70375 4.02582 0.771325 3.83336C-0.161102 3.6409 2.02587 3.48125 2.1751 2.75829Z" fill="#BABCD2"/>
<path d="M0.771885 1.41105C0.642107 2.13738 2.53659 3.08348 1.6341 2.92222C0.731601 2.76096 0.105179 2.04144 0.234957 1.31512C0.364734 0.588797 1.20157 0.130723 2.10406 0.291979C3.00656 0.453236 0.901662 0.684734 0.771885 1.41105Z" fill="#8A8DAE"/>
<path d="M5.84113 2.18589C5.84113 2.30438 5.82331 2.41339 5.78766 2.51289C5.75204 2.61238 5.70254 2.69832 5.6392 2.77069C5.57584 2.84304 5.50062 2.8996 5.41352 2.94029C5.3272 2.98009 5.23296 3 5.1308 3H4.71268C4.61054 3 4.51591 2.98009 4.4288 2.94029C4.3417 2.8996 4.26647 2.84304 4.20311 2.77069C4.13977 2.69832 4.08987 2.61238 4.05345 2.51289C4.01782 2.41339 4 2.30438 4 2.18589V1.81411C4 1.69652 4.01782 1.58798 4.05345 1.48847C4.08987 1.38806 4.13977 1.30213 4.20311 1.23067C4.26647 1.15831 4.3417 1.10177 4.4288 1.06107C4.51591 1.02036 4.61054 1 4.71268 1H5.1308C5.23296 1 5.3272 1.02036 5.41352 1.06107C5.50062 1.10177 5.57584 1.15831 5.6392 1.23067C5.70254 1.30213 5.75204 1.38806 5.78766 1.48847C5.82331 1.58798 5.84113 1.69652 5.84113 1.81411V2.18589ZM5.53229 1.81411C5.53229 1.74445 5.52239 1.6816 5.50259 1.62551C5.48359 1.56853 5.45626 1.52013 5.42064 1.48033C5.3858 1.43962 5.34343 1.40843 5.29355 1.3867C5.24444 1.3641 5.1902 1.35279 5.1308 1.35279H4.71268C4.65251 1.35279 4.59747 1.3641 4.54758 1.3867C4.49848 1.40843 4.45612 1.43962 4.4205 1.48033C4.38485 1.52013 4.35714 1.56853 4.33734 1.62551C4.31833 1.6816 4.30883 1.74445 4.30883 1.81411V2.18589C4.30883 2.25555 4.31833 2.31886 4.33734 2.37585C4.35714 2.43194 4.38485 2.48032 4.4205 2.52103C4.45612 2.56083 4.49848 2.59204 4.54758 2.61464C4.59747 2.63637 4.65251 2.64721 4.71268 2.64721H5.12843C5.18861 2.64721 5.24326 2.63637 5.29235 2.61464C5.34224 2.59204 5.38501 2.56083 5.42064 2.52103C5.45626 2.48032 5.48359 2.43194 5.50259 2.37585C5.52239 2.31886 5.53229 2.25555 5.53229 2.18589V1.81411ZM7.71077 2.97286H6.30201C6.27984 2.97286 6.25924 2.96834 6.24024 2.95929C6.22123 2.95024 6.20459 2.93803 6.19035 2.92265C6.17688 2.90637 6.16619 2.88737 6.15828 2.86566C6.15036 2.84395 6.14641 2.82043 6.14641 2.79512V1.02714H6.45524V2.62007H7.71077V2.97286ZM9.43313 1.02714L8.62655 2.90365C8.61389 2.9326 8.59491 2.95567 8.56957 2.97286C8.54502 2.99095 8.51769 3 8.48759 3C8.4583 3 8.43098 2.99095 8.40563 2.97286C8.3811 2.95567 8.36209 2.9326 8.34863 2.90365L7.54327 1.02714H7.88894L8.48759 2.42877L9.08868 1.02714H9.43313ZM9.91893 2.97286H9.61007V1.02714H9.91893V2.97286ZM11.0581 1.72185L11.5783 1.02714H12L11.2671 2.00272L11.9952 2.97286H11.5759L11.0581 2.28358L10.5425 2.97286H10.1221L10.849 2.00272L10.1196 1.02714H10.5378L11.0581 1.72185Z" fill="#9497B7"/>
</svg>
