<svg width="71" height="30" viewBox="0 0 71 30" fill="none" xmlns="http://www.w3.org/2000/svg">
<path d="M4.78611 9.72558C4.78611 15.0969 18.9668 19.4512 12.5668 19.4512C6.16678 19.4512 0.978516 15.0969 0.978516 9.72558C0.978516 4.3543 6.16678 0 12.5668 0C18.9668 0 4.78611 4.3543 4.78611 9.72558Z" fill="#8A8DAE"/>
<path d="M17.0419 19.9144C17.0419 14.5431 2.86116 10.1888 9.26119 10.1888C15.6612 10.1888 20.8495 14.5431 20.8495 19.9144C20.8495 25.2857 15.6612 29.64 9.26119 29.64C2.86116 29.64 17.0419 25.2857 17.0419 19.9144Z" fill="#BABCD2"/>
<path d="M34.5766 17.3285C34.5766 18.0419 34.4712 18.6982 34.2604 19.2973C34.0497 19.8963 33.757 20.4137 33.3824 20.8494C33.0077 21.285 32.5628 21.6255 32.0477 21.8705C31.5372 22.1101 30.9799 22.23 30.3757 22.23H27.903C27.2989 22.23 26.7393 22.1101 26.2241 21.8705C25.709 21.6255 25.2641 21.285 24.8894 20.8494C24.5148 20.4137 24.2197 19.8963 24.0043 19.2973C23.7936 18.6982 23.6882 18.0419 23.6882 17.3285V15.0902C23.6882 14.3822 23.7936 13.7287 24.0043 13.1296C24.2197 12.5251 24.5148 12.0077 24.8894 11.5775C25.2641 11.1418 25.709 10.8014 26.2241 10.5564C26.7393 10.3113 27.2989 10.1887 27.903 10.1887H30.3757C30.9799 10.1887 31.5372 10.3113 32.0477 10.5564C32.5628 10.8014 33.0077 11.1418 33.3824 11.5775C33.757 12.0077 34.0497 12.5251 34.2604 13.1296C34.4712 13.7287 34.5766 14.3822 34.5766 15.0902V17.3285ZM32.7501 15.0902C32.7501 14.6708 32.6916 14.2924 32.5745 13.9547C32.4621 13.6116 32.3005 13.3202 32.0898 13.0806C31.8838 12.8355 31.6332 12.6477 31.3382 12.5169C31.0478 12.3808 30.727 12.3127 30.3757 12.3127H27.903C27.5471 12.3127 27.2216 12.3808 26.9266 12.5169C26.6362 12.6477 26.3857 12.8355 26.175 13.0806C25.9642 13.3202 25.8003 13.6116 25.6832 13.9547C25.5708 14.2924 25.5146 14.6708 25.5146 15.0902V17.3285C25.5146 17.7479 25.5708 18.1291 25.6832 18.4722C25.8003 18.8099 25.9642 19.1012 26.175 19.3463C26.3857 19.5859 26.6362 19.7738 26.9266 19.9099C27.2216 20.0407 27.5471 20.106 27.903 20.106H30.3617C30.7176 20.106 31.0408 20.0407 31.3311 19.9099C31.6262 19.7738 31.8791 19.5859 32.0898 19.3463C32.3005 19.1012 32.4621 18.8099 32.5745 18.4722C32.6916 18.1291 32.7501 17.7479 32.7501 17.3285V15.0902ZM45.6336 22.0666H37.3022C37.1711 22.0666 37.0493 22.0394 36.9369 21.9849C36.8245 21.9304 36.7261 21.8569 36.6419 21.7643C36.5622 21.6663 36.499 21.5519 36.4522 21.4212C36.4054 21.2905 36.382 21.1489 36.382 20.9965V10.3521H38.2084V19.9426H45.6336V22.0666ZM55.8196 10.3521L51.0495 21.6499C50.9746 21.8242 50.8624 21.9631 50.7125 22.0666C50.5673 22.1755 50.4057 22.23 50.2277 22.23C50.0545 22.23 49.8929 22.1755 49.743 22.0666C49.5979 21.9631 49.4855 21.8242 49.4059 21.6499L44.643 10.3521H46.6873L50.2277 18.7908L53.7825 10.3521H55.8196ZM58.6926 22.0666H56.866V10.3521H58.6926V22.0666ZM65.4295 14.5347L68.5063 10.3521H71L66.6658 16.2257L70.9717 22.0666H68.4919L65.4295 17.9167L62.3804 22.0666H59.8939L64.1932 16.2257L59.8795 10.3521H62.3526L65.4295 14.5347Z" fill="#9497B7"/>
</svg>
