<svg width="143" height="47" viewBox="0 0 143 47" fill="none" xmlns="http://www.w3.org/2000/svg">
<path d="M12.6204 15.0029C12.6204 23.2888 33.5526 30.0059 24.1055 30.0059C14.6584 30.0059 7 23.2888 7 15.0029C7 6.71704 14.6584 0 24.1055 0C33.5526 0 12.6204 6.71704 12.6204 15.0029Z" fill="#8A8DAE"/>
<path d="M31.2834 30.7473C31.4615 39.0312 7.79192 46.2586 18.5396 46.0276C29.2873 45.7966 37.8556 38.8938 37.6776 30.6098C37.4995 22.3258 28.6424 15.7976 17.8947 16.0287C7.14707 16.2597 31.1054 22.4633 31.2834 30.7473Z" fill="#BABCD2"/>
<path d="M66.2578 22.5039C66.2578 23.7832 66.0381 24.96 65.5986 26.0342C65.1592 27.1084 64.5488 28.0361 63.7676 28.8174C62.9863 29.5986 62.0586 30.209 60.9844 30.6484C59.9199 31.0781 58.7578 31.293 57.498 31.293H52.3418C51.082 31.293 49.915 31.0781 48.8408 30.6484C47.7666 30.209 46.8389 29.5986 46.0576 28.8174C45.2764 28.0361 44.6611 27.1084 44.2119 26.0342C43.7725 24.96 43.5527 23.7832 43.5527 22.5039V18.4902C43.5527 17.2207 43.7725 16.0488 44.2119 14.9746C44.6611 13.8906 45.2764 12.9629 46.0576 12.1914C46.8389 11.4102 47.7666 10.7998 48.8408 10.3604C49.915 9.9209 51.082 9.70117 52.3418 9.70117H57.498C58.7578 9.70117 59.9199 9.9209 60.9844 10.3604C62.0586 10.7998 62.9863 11.4102 63.7676 12.1914C64.5488 12.9629 65.1592 13.8906 65.5986 14.9746C66.0381 16.0488 66.2578 17.2207 66.2578 18.4902V22.5039ZM62.4492 18.4902C62.4492 17.7383 62.3271 17.0596 62.083 16.4541C61.8486 15.8389 61.5117 15.3164 61.0723 14.8867C60.6426 14.4473 60.1201 14.1104 59.5049 13.876C58.8994 13.6318 58.2305 13.5098 57.498 13.5098H52.3418C51.5996 13.5098 50.9209 13.6318 50.3057 13.876C49.7002 14.1104 49.1777 14.4473 48.7383 14.8867C48.2988 15.3164 47.957 15.8389 47.7129 16.4541C47.4785 17.0596 47.3613 17.7383 47.3613 18.4902V22.5039C47.3613 23.2559 47.4785 23.9395 47.7129 24.5547C47.957 25.1602 48.2988 25.6826 48.7383 26.1221C49.1777 26.5518 49.7002 26.8887 50.3057 27.1328C50.9209 27.3672 51.5996 27.4844 52.3418 27.4844H57.4688C58.2109 27.4844 58.8848 27.3672 59.4902 27.1328C60.1055 26.8887 60.6328 26.5518 61.0723 26.1221C61.5117 25.6826 61.8486 25.1602 62.083 24.5547C62.3271 23.9395 62.4492 23.2559 62.4492 22.5039V18.4902ZM89.3145 31H71.9414C71.668 31 71.4141 30.9512 71.1797 30.8535C70.9453 30.7559 70.7402 30.624 70.5645 30.458C70.3984 30.2822 70.2666 30.0771 70.1689 29.8428C70.0713 29.6084 70.0225 29.3545 70.0225 29.0811V9.99414H73.8311V27.1914H89.3145V31ZM110.555 9.99414L100.608 30.2529C100.452 30.5654 100.218 30.8145 99.9053 31C99.6025 31.1953 99.2656 31.293 98.8945 31.293C98.5332 31.293 98.1963 31.1953 97.8838 31C97.5811 30.8145 97.3467 30.5654 97.1807 30.2529L87.249 9.99414H91.5117L98.8945 25.126L106.307 9.99414H110.555ZM116.546 31H112.737V9.99414H116.546V31ZM130.594 17.4941L137.01 9.99414H142.21L133.172 20.5264L142.151 31H136.98L130.594 23.5586L124.236 31H119.051L128.016 20.5264L119.021 9.99414H124.178L130.594 17.4941Z" fill="#9497B7"/>
</svg>
