<svg width="39" height="37" viewBox="0 0 39 37" fill="none" xmlns="http://www.w3.org/2000/svg">
<rect width="38.255" height="36.3423" rx="18.1711" fill="#C4CDDE" fill-opacity="0.3"/>
<g clip-path="url(#clip0_37_175)">
<path d="M16.3874 26.4948V25.9365H12.3578C11.7168 25.9356 11.1023 25.6706 10.6491 25.1995C10.1958 24.7285 9.94082 24.0899 9.93996 23.4237V22.9971C9.93786 22.4659 10.0792 21.9446 10.348 21.4927C10.6168 21.0408 11.0023 20.6764 11.4605 20.4408C11.6655 20.3344 11.8408 20.1752 11.9696 19.9783C12.0985 19.7814 12.1766 19.5535 12.1966 19.3163L12.6758 13.8329C12.7663 12.7983 13.0787 11.7978 13.59 10.9051C14.1013 10.0124 14.7986 9.25008 15.6306 8.67419C16.4627 8.0983 17.4083 7.72347 18.398 7.57724C19.3877 7.43101 20.3964 7.5171 21.3498 7.82918C21.0552 8.30538 20.8255 8.82179 20.6675 9.36362C20.2352 9.24454 19.7898 9.18448 19.3425 9.18494C18.0734 9.17875 16.8485 9.66939 15.9116 10.5592C14.9748 11.449 14.3946 12.6728 14.2866 13.987L13.8085 19.4681C13.764 19.9899 13.5913 20.4911 13.307 20.9237C13.0227 21.3562 12.6363 21.7056 12.1848 21.9384C11.9944 22.0358 11.8342 22.1868 11.7223 22.3741C11.6104 22.5615 11.5513 22.7777 11.5518 22.9982V23.4248C11.5524 23.6467 11.6375 23.8593 11.7886 24.0161C11.9396 24.1728 12.1443 24.261 12.3578 24.2613H26.3273C26.541 24.261 26.7458 24.1727 26.8969 24.0157C27.048 23.8587 27.133 23.6458 27.1332 23.4237V22.9971C27.1341 22.7771 27.0755 22.5613 26.9642 22.3741C26.8529 22.1869 26.6933 22.036 26.5035 21.9384C26.0514 21.7061 25.6643 21.3568 25.3794 20.9243C25.0945 20.4917 24.9214 19.9903 24.8766 19.4681L24.6617 17.0336C25.1944 17.1959 25.7464 17.279 26.3015 17.2804L26.4799 19.3151C26.5016 19.5517 26.5806 19.7787 26.7095 19.9749C26.8384 20.1712 27.013 20.3303 27.2171 20.4375C27.6756 20.6732 28.0615 21.0377 28.3308 21.4897C28.6002 21.9418 28.7422 22.4632 28.7408 22.9949V23.4215C28.7402 24.0877 28.4853 24.7265 28.032 25.1976C27.5787 25.6687 26.9641 25.9336 26.323 25.9342H22.2976V26.4948C22.2976 27.3094 21.9863 28.0905 21.4321 28.6664C20.8779 29.2424 20.1263 29.566 19.3425 29.566C18.5588 29.566 17.8072 29.2424 17.253 28.6664C16.6988 28.0905 16.3874 27.3094 16.3874 26.4948ZM17.9993 26.4948C17.9993 26.8651 18.1408 27.2201 18.3927 27.4819C18.6446 27.7437 18.9863 27.8908 19.3425 27.8908C19.6988 27.8908 20.0404 27.7437 20.2923 27.4819C20.5442 27.2201 20.6858 26.8651 20.6858 26.4948V25.9365H17.9993V26.4948ZM26.1092 15.0413C25.5236 15.0062 24.9542 14.8287 24.4468 14.5231L24.3995 13.987C24.2847 12.6048 23.648 11.3259 22.6286 10.4301C22.7311 9.85855 22.9551 9.31793 23.2841 8.84768C24.0527 9.42969 24.693 10.1754 25.1622 11.0351C25.6314 11.8948 25.9187 12.8486 26.0049 13.8329L26.1124 15.0402L26.1092 15.0413Z" fill="black"/>
<path d="M26.3272 15.048C25.5833 15.048 24.8562 14.8187 24.2377 14.3892C23.6192 13.9597 23.1371 13.3493 22.8525 12.6351C22.5678 11.9209 22.4933 11.1349 22.6384 10.3767C22.7836 9.61853 23.1418 8.92206 23.6677 8.37542C24.1937 7.82878 24.8639 7.45652 25.5935 7.3057C26.323 7.15488 27.0792 7.23229 27.7665 7.52813C28.4537 7.82397 29.0411 8.32495 29.4544 8.96773C29.8676 9.61051 30.0882 10.3662 30.0882 11.1393C30.0882 12.1759 29.692 13.1701 28.9866 13.9031C28.2813 14.6362 27.3247 15.048 26.3272 15.048Z" fill="#FF6359"/>
</g>
<defs>
<clipPath id="clip0_37_175">
<rect width="25.7899" height="26.8024" fill="white" transform="translate(6.44751 4.99706)"/>
</clipPath>
</defs>
</svg>
