<svg width="44" height="43" viewBox="0 0 44 43" fill="none" xmlns="http://www.w3.org/2000/svg">
<path d="M13.2571 0.290606C12.8631 0.468099 12.2837 0.956207 12.0288 1.39994L11.5421 2.17647H9.15495C6.6288 2.17647 6.48974 2.24304 6.48974 3.308C6.48974 3.68517 6.30434 3.72954 4.28804 3.72954C2.75844 3.72954 1.85459 3.84048 1.39107 4.06234C-0.0690015 4.77232 0.000525726 3.95141 0.000525726 23.6088V41.4913L0.788502 42.2457L1.57648 43H14.6013H27.626L28.414 42.2457L29.202 41.4913V39.1395C29.202 37.8527 29.2483 36.7877 29.2947 36.7877C29.3411 36.7877 29.7582 36.943 30.1986 37.1205C30.9402 37.409 31.0329 37.5421 31.1024 38.3852L31.1719 39.3392L33.1419 39.4058C35.3436 39.4723 35.6912 39.2948 35.6912 38.0302C35.6912 37.4311 35.8303 37.298 36.7573 36.9208C37.777 36.5215 37.8002 36.5215 38.3101 36.943C39.2139 37.7196 39.3298 37.6974 40.7204 36.5437C42.5281 35.035 42.5512 34.9684 41.7169 34.0588L41.0216 33.2822L41.4852 32.2838C41.9255 31.3298 42.0182 31.2632 42.9452 31.1967L43.9186 31.1301L43.9881 29.2442C44.0577 27.1587 43.8491 26.8037 42.6208 26.8037C42.0645 26.8037 41.9023 26.6484 41.4852 25.7609L41.0216 24.7403L41.601 24.1413C41.9255 23.8307 42.1804 23.4535 42.1804 23.2982C42.1804 22.9654 40.6972 21.3902 39.8397 20.8133L39.2139 20.3696L38.5187 20.9242C37.6843 21.5898 37.7075 21.5898 36.456 21.0795C35.5522 20.7467 35.4595 20.6358 35.4595 19.9036C35.4595 18.7721 35.135 18.5946 33.1419 18.5946C31.1256 18.5946 30.8243 18.7721 30.8243 19.9258C30.8243 20.5914 30.7084 20.7911 30.2449 20.9908C29.9204 21.1461 29.5496 21.257 29.4338 21.257C29.2947 21.257 29.202 18.2618 29.202 13.4917C29.202 3.52986 29.3642 3.90704 25.1694 3.72954L22.5969 3.61861L22.481 2.95301L22.3651 2.28741L19.978 2.22085L17.6141 2.15429L17.2665 1.48869C16.5249 0.135299 14.833 -0.374995 13.2571 0.290606ZM15.5978 1.59962C15.8064 1.75493 16.1077 2.19866 16.2467 2.57584L16.5017 3.26362L18.8424 3.33018L21.2064 3.39674L21.2759 5.01637L21.3454 6.61381L14.6708 6.56944L7.99617 6.50288L7.92664 5.01637L7.85711 3.52986L10.2442 3.4633L12.6313 3.39674L13.0021 2.6424C13.6279 1.35557 14.6708 0.93402 15.5978 1.59962ZM6.48974 6.23664C6.48974 6.88006 6.60562 7.52347 6.76785 7.67878C7.16184 8.05595 22.0407 8.05595 22.4347 7.67878C22.5969 7.52347 22.7128 6.88006 22.7128 6.23664V5.06075H24.845C28.0664 5.06075 27.8115 4.39514 27.8115 13.2033V20.5914H27.3016C26.699 20.5914 24.3351 22.7214 24.3351 23.2538C24.3583 23.4313 24.59 23.8751 24.8913 24.2301L25.4475 24.8735L24.984 25.8053C24.5668 26.6262 24.3814 26.7593 23.5935 26.8703C23.0836 26.9368 22.5969 27.0478 22.5274 27.1365C22.4347 27.2031 22.342 27.9574 22.2956 28.7783C22.1797 30.7086 22.4578 31.241 23.5239 31.241C24.2424 31.241 24.3814 31.352 24.8913 32.306L25.4475 33.3488L24.8913 33.97C24.59 34.325 24.3351 34.7687 24.3351 34.9684C24.3351 35.1903 24.8913 35.9003 25.5866 36.5437C26.5368 37.4311 26.9771 37.6974 27.3248 37.6086C27.7883 37.4977 27.8115 37.5864 27.8115 39.1839C27.8115 41.9129 29.0861 41.6688 14.6476 41.6688C3.43054 41.6688 2.20222 41.6244 1.80824 41.2916C1.41425 40.9588 1.39107 40.0935 1.39107 23.3426C1.39107 7.65659 1.43742 5.72635 1.76188 5.41573C2.03999 5.14949 2.61939 5.06075 4.31122 5.06075H6.48974V6.23664ZM34.2543 21.0795C34.3238 21.8561 34.3934 21.9226 35.2972 22.1667C35.8303 22.2998 36.5951 22.6104 37.0122 22.8323C37.8002 23.2982 38.3101 23.2095 38.9358 22.4773C39.2139 22.1667 39.2835 22.1667 39.7933 22.6104C40.4422 23.2317 40.4654 23.4313 39.8397 24.0747L39.3298 24.5629L39.9556 25.9606C40.8826 28.0018 40.8826 28.024 41.8096 28.0905C42.6208 28.1571 42.6439 28.2015 42.6439 29.0446C42.6439 29.8211 42.5976 29.9098 42.0414 29.9098C41.2302 29.9098 40.5581 30.287 40.5581 30.7529C40.5581 30.9748 40.28 31.6848 39.9556 32.3282L39.3298 33.5041L39.8629 34.1697L40.3727 34.8353L39.7701 35.4121L39.1908 35.989L38.6114 35.4787C37.9856 34.9019 37.9161 34.9019 35.8071 35.7671C34.9264 36.1221 34.3934 36.4549 34.347 36.7212C34.1153 38.0524 34.0689 38.1189 33.2578 38.1189C32.493 38.1189 32.4466 38.0746 32.4466 37.3646C32.4466 36.4993 32.3771 36.4549 30.5925 35.7228C28.6226 34.924 28.5299 34.9019 27.9042 35.4787L27.3248 35.989L26.7222 35.39L26.0964 34.8131L26.6295 34.2584C27.2321 33.6594 27.2089 33.5928 26.3514 31.596C25.7025 30.1539 25.4475 29.9098 24.4973 29.9098C23.8947 29.9098 23.8484 29.8655 23.9179 29.0668C23.9874 28.2902 24.0338 28.2458 24.8681 28.1349C25.7025 28.024 25.7952 27.9574 26.2123 26.8259C26.4441 26.1603 26.7454 25.5169 26.8844 25.3838C27.2321 25.051 27.1625 24.6072 26.6527 23.9638L26.166 23.4091L26.8149 22.7657L27.4406 22.1445L28.0664 22.7214L28.6921 23.2982L29.8741 22.7214C30.4998 22.4107 31.1951 22.1445 31.3805 22.1445C31.9367 22.1445 32.4466 21.5011 32.4466 20.7911C32.4466 20.1477 32.493 20.1255 33.3273 20.1921C34.1384 20.2586 34.1848 20.303 34.2543 21.0795Z" fill="#534667"/>
<path d="M9.1505 4.94041C9.10243 5.15388 9.1505 5.58083 9.27067 5.8553C9.46294 6.34324 9.96765 6.40424 14.51 6.40424C19.0524 6.40424 19.5571 6.34324 19.7494 5.8553C20.2541 4.63544 19.9897 4.57445 14.51 4.57445C10.5204 4.57445 9.24663 4.66594 9.1505 4.94041Z" fill="#534667"/>
<path d="M5.99733 11.0084L4.59126 12.0447L3.95214 11.4229C3.51753 11.0499 3.13406 10.8633 2.87841 10.9462C2.29041 11.1328 2.36711 11.6716 3.13406 12.77C3.59423 13.454 3.95214 13.7234 4.36118 13.7234C5.12812 13.7234 8.42601 11.0084 8.29818 10.4903C8.14479 9.78562 7.42897 9.95142 5.99733 11.0084Z" fill="#534667"/>
<path d="M9.15084 12.2271C9.10189 12.4453 9.15084 12.8817 9.27322 13.1623C9.46903 13.6922 10.1299 13.7234 17.7421 13.7234C22.2702 13.7234 26.1375 13.5987 26.3088 13.4428C26.5046 13.287 26.6025 12.9129 26.5536 12.6011C26.4801 12.04 26.064 12.0088 17.8644 11.9153C11.109 11.853 9.24874 11.9153 9.15084 12.2271Z" fill="#534667"/>
<path d="M6.70026 16.5368L5.71462 17.6192L5.30549 17.0474C4.39424 15.8425 3.74335 16.6389 4.45003 18.0684C5.21251 19.6204 5.39848 19.6204 6.97921 17.9051C7.90906 16.8636 8.33679 16.2714 8.29959 15.9855C8.20661 15.2707 7.70449 15.4341 6.70026 16.5368Z" fill="#534667"/>
<path d="M9.15354 18.5266C9.08038 18.6486 9.20232 18.8468 9.39741 18.984C9.71445 19.1823 10.9094 19.2128 17.7866 19.2128C22.2007 19.2128 25.9564 19.167 26.1758 19.1213C26.3953 19.0755 26.566 18.8621 26.566 18.6638V18.2979H17.933C10.568 18.2979 9.27548 18.3284 9.15354 18.5266Z" fill="#534667"/>
<path d="M6.07834 22.8897L4.61287 24.0045L4.00648 23.4073C3.32428 22.7503 2.49048 22.7702 2.49048 23.4471C2.49048 23.9846 3.82961 25.617 4.25914 25.617C4.71394 25.617 8.3018 22.83 8.3018 22.4915C8.3018 22.3721 8.12493 22.173 7.9228 22.0337C7.6196 21.8346 7.29113 21.9938 6.07834 22.8897Z" fill="#534667"/>
<path d="M9.27361 24.9858C8.76631 25.5936 9.32192 25.6416 16.0376 25.6096L22.4151 25.5616V25.1617V24.7619L15.9651 24.7139C9.82922 24.6819 9.49102 24.6979 9.27361 24.9858Z" fill="#534667"/>
<path d="M6.59009 29.3273L5.67294 30.3498L5.30608 29.8285C4.86584 29.2671 4.3339 29.1669 4.16881 29.6481C4.02206 30.049 4.81081 31.6931 5.26939 31.9738C5.56288 32.1342 5.83803 31.9337 6.99364 30.6706C8.38771 29.1268 8.64451 28.4852 7.8741 28.3649C7.63564 28.3248 7.19541 28.6656 6.59009 29.3273Z" fill="#534667"/>
<path d="M9.31274 31.3245C9.07186 31.516 9.07186 31.6117 9.31274 31.8032C9.57772 32.0107 10.4449 32.0426 15.1903 32.0107L20.7547 31.9628V31.5639V31.1649L15.1903 31.117C10.4449 31.0851 9.57772 31.117 9.31274 31.3245Z" fill="#534667"/>
<path d="M6.6487 35.7871L5.62108 36.9094L5.30912 36.2794C4.96046 35.5509 4.2448 35.4721 4.15305 36.1612C4.09799 36.6338 5.10727 38.4255 5.45592 38.4255C5.87798 38.4255 8.37364 35.5509 8.30024 35.1571C8.19013 34.4876 7.71302 34.6648 6.6487 35.7871Z" fill="#534667"/>
<path d="M9.15157 37.0532C9.08513 37.2972 9.19586 37.6936 9.37302 37.9681C9.66091 38.334 10.3696 38.4255 13.2263 38.4255C15.153 38.4255 16.8803 38.334 17.0796 38.2426C17.2789 38.1511 17.434 37.7241 17.434 37.3277V36.5957H13.3592C9.97095 36.5957 9.2623 36.6872 9.15157 37.0532Z" fill="#534667"/>
<path d="M31.7364 24.9178C30.4972 25.246 28.7881 27.062 28.4676 28.3966C28.1258 29.7531 28.1471 30.3 28.5317 31.4377C29.7281 34.9165 34.3642 35.9229 36.7784 33.2318C38.6798 31.1314 38.6584 28.1559 36.7143 26.1868C35.411 24.8303 33.6592 24.3927 31.7364 24.9178ZM34.6846 26.2524C36.2442 26.9088 37.2484 28.9654 36.7784 30.5407C36.4793 31.5471 35.6674 32.6192 34.8128 33.0568C34.0223 33.4944 32.3987 33.4725 31.48 33.013C30.0699 32.3348 29.2154 30.2344 29.7067 28.681C30.4118 26.4712 32.655 25.3773 34.6846 26.2524Z" fill="#534667"/>
</svg>
