<svg width="24" height="24" viewBox="0 0 24 24" fill="none" xmlns="http://www.w3.org/2000/svg">
<g clip-path="url(#clip0_678_86)">
<mask id="mask0_678_86" style="mask-type:luminance" maskUnits="userSpaceOnUse" x="0" y="0" width="24" height="24">
<path d="M24 0H0V24H24V0Z" fill="white"/>
</mask>
<g mask="url(#mask0_678_86)">
<path d="M8 6H5C4.447 6 4 5.552 4 5C4 4.448 4.447 4 5 4H8C8.553 4 9 4.448 9 5C9 5.552 8.553 6 8 6ZM13 10H5C4.447 10 4 9.552 4 9C4 8.448 4.447 8 5 8H13C13.553 8 14 8.448 14 9C14 9.552 13.553 10 13 10ZM13 14H5C4.447 14 4 13.552 4 13C4 12.448 4.447 12 5 12H13C13.553 12 14 12.448 14 13C14 13.552 13.553 14 13 14Z" fill="white"/>
<path d="M18 2V10C18 10.55 17.55 11 17 11C16.45 11 16 10.55 16 10V2.5C16 2.22 15.78 2 15.5 2H2.5C2.22 2 2 2.22 2 2.5V21.5C2 21.78 2.22 22 2.5 22H15.5C15.78 22 16 21.78 16 21.5V21C16 20.45 16.45 20 17 20C17.55 20 18 20.45 18 21V22C18 23.1 17.1 24 16 24H2C0.9 24 0 23.1 0 22V2C0 0.9 0.9 0 2 0H16C17.1 0 18 0.9 18 2Z" fill="white"/>
<path d="M23.87 11.882C24.18 12.422 23.915 13.155 23.275 13.525L13.625 19.095C13.541 19.145 13.449 19.181 13.36 19.205L10.704 19.865C10.334 19.957 9.98404 19.83 9.82404 19.551C9.66204 19.273 9.73404 18.901 9.99404 18.638L11.901 16.68C11.964 16.608 12.038 16.557 12.115 16.513C12.119 16.503 12.127 16.498 12.127 16.498L21.777 10.928C22.417 10.558 23.185 10.694 23.497 11.233L23.871 11.883L23.87 11.882Z" fill="white"/>
</g>
</g>
<defs>
<clipPath id="clip0_678_86">
<rect width="24" height="24" fill="white"/>
</clipPath>
</defs>
</svg>
