<svg width="39" height="37" viewBox="0 0 39 37" fill="none" xmlns="http://www.w3.org/2000/svg">
<rect width="38.255" height="36.3423" rx="18.1711" fill="#C4CDDE" fill-opacity="0.3"/>
<path d="M19.3424 16.9417C22.6055 16.9417 25.2508 13.9962 25.2508 10.3628C25.2508 6.72931 22.6055 3.78383 19.3424 3.78383C16.0793 3.78383 13.4341 6.72931 13.4341 10.3628C13.4341 13.9962 16.0793 16.9417 19.3424 16.9417Z" fill="black"/>
<path d="M26.2358 18.0382H12.4494C10.2742 18.0382 8.51099 20.002 8.51099 22.4241V25.7133C8.51099 27.2362 13.3602 28.4699 19.3425 28.4699C25.3253 28.4702 30.1745 27.2362 30.1745 25.7136V22.4241C30.1745 20.002 28.4111 18.0382 26.2358 18.0382Z" fill="black"/>
</svg>
