<svg width="44" height="48" viewBox="0 0 44 48" fill="none" xmlns="http://www.w3.org/2000/svg">
<g clip-path="url(#clip0_678_94)">
<path d="M15.7143 5.14286C15.7143 2.30357 17.8259 0 20.4286 0H23.5714C26.1741 0 28.2857 2.30357 28.2857 5.14286V42.8571C28.2857 45.6964 26.1741 48 23.5714 48H20.4286C17.8259 48 15.7143 45.6964 15.7143 42.8571V5.14286ZM0 25.7143C0 22.875 2.11161 20.5714 4.71429 20.5714H7.85714C10.4598 20.5714 12.5714 22.875 12.5714 25.7143V42.8571C12.5714 45.6964 10.4598 48 7.85714 48H4.71429C2.11161 48 0 45.6964 0 42.8571V25.7143ZM36.1429 6.85714H39.2857C41.8884 6.85714 44 9.16071 44 12V42.8571C44 45.6964 41.8884 48 39.2857 48H36.1429C33.5402 48 31.4286 45.6964 31.4286 42.8571V12C31.4286 9.16071 33.5402 6.85714 36.1429 6.85714Z" fill="white"/>
</g>
<defs>
<clipPath id="clip0_678_94">
<rect width="44" height="48" fill="white"/>
</clipPath>
</defs>
</svg>
