<svg width="64" height="71" viewBox="0 0 64 71" fill="none" xmlns="http://www.w3.org/2000/svg">
<g clip-path="url(#clip0_621_75)">
<path d="M19.0119 5.29727C20.2494 6.53145 20.3494 8.6254 19.2369 9.99825L10.2369 21.092C9.68691 21.7715 8.91191 22.1736 8.08691 22.1875C7.26191 22.2014 6.47441 21.8547 5.88691 21.2168L0.874414 15.6699C-0.288086 14.3664 -0.288086 12.2586 0.874414 10.9551C2.03691 9.65157 3.94941 9.65157 5.11191 10.9551L7.87441 14.0197L14.7619 5.53302C15.8744 4.16016 17.7619 4.04923 18.9994 5.28341L19.0119 5.29727ZM19.0119 27.4848C20.2494 28.719 20.3494 30.8129 19.2369 32.1858L10.2369 43.2795C9.68691 43.959 8.91191 44.3611 8.08691 44.375C7.26191 44.3889 6.47441 44.0422 5.88691 43.4043L0.874414 37.8574C-0.300586 36.5539 -0.300586 34.4461 0.874414 33.1565C2.04941 31.8668 3.94941 31.8529 5.11191 33.1565L7.87441 36.2211L14.7619 27.7344C15.8744 26.3615 17.7619 26.2506 18.9994 27.4848H19.0119ZM27.9994 13.3125C27.9994 10.858 29.7869 8.87501 31.9994 8.87501H59.9994C62.2119 8.87501 63.9994 10.858 63.9994 13.3125C63.9994 15.767 62.2119 17.75 59.9994 17.75H31.9994C29.7869 17.75 27.9994 15.767 27.9994 13.3125ZM27.9994 35.5C27.9994 33.0455 29.7869 31.0625 31.9994 31.0625H59.9994C62.2119 31.0625 63.9994 33.0455 63.9994 35.5C63.9994 37.9545 62.2119 39.9375 59.9994 39.9375H31.9994C29.7869 39.9375 27.9994 37.9545 27.9994 35.5ZM19.9994 57.6875C19.9994 55.233 21.7869 53.25 23.9994 53.25H59.9994C62.2119 53.25 63.9994 55.233 63.9994 57.6875C63.9994 60.142 62.2119 62.125 59.9994 62.125H23.9994C21.7869 62.125 19.9994 60.142 19.9994 57.6875ZM5.99941 51.0313C7.59071 51.0313 9.11684 51.7325 10.2421 52.9808C11.3673 54.2291 11.9994 55.9222 11.9994 57.6875C11.9994 59.4529 11.3673 61.1459 10.2421 62.3942C9.11684 63.6425 7.59071 64.3438 5.99941 64.3438C4.40812 64.3438 2.88199 63.6425 1.75677 62.3942C0.631555 61.1459 -0.000585973 59.4529 -0.000585973 57.6875C-0.000585973 55.9222 0.631555 54.2291 1.75677 52.9808C2.88199 51.7325 4.40812 51.0313 5.99941 51.0313Z" fill="#534667"/>
</g>
<defs>
<clipPath id="clip0_621_75">
<rect width="64" height="71" fill="white"/>
</clipPath>
</defs>
</svg>
