<svg width="61" height="13" viewBox="0 0 61 13" fill="none" xmlns="http://www.w3.org/2000/svg">
<path d="M14.0386 7.70826C14.0386 8.4785 13.9028 9.18703 13.631 9.83379C13.3593 10.4805 12.9819 11.0391 12.4989 11.5095C12.0158 11.9798 11.4422 12.3473 10.7781 12.6119C10.1199 12.8706 9.40134 13 8.62241 13H5.43432C4.65538 13 3.93382 12.8706 3.26964 12.6119C2.60546 12.3473 2.03186 11.9798 1.54878 11.5095C1.06577 11.0391 0.685325 10.4805 0.407584 9.83379C0.135902 9.18703 0 8.4785 0 7.70826V5.2917C0 4.52736 0.135902 3.82178 0.407584 3.17502C0.685325 2.52237 1.06577 1.96382 1.54878 1.49932C2.03186 1.02897 2.60546 0.661463 3.26964 0.396909C3.93382 0.132295 4.65538 0 5.43432 0H8.62241C9.40134 0 10.1199 0.132295 10.7781 0.396909C11.4422 0.661463 12.0158 1.02897 12.4989 1.49932C12.9819 1.96382 13.3593 2.52237 13.631 3.17502C13.9028 3.82178 14.0386 4.52736 14.0386 5.2917V7.70826ZM11.6837 5.2917C11.6837 4.83899 11.6082 4.43036 11.4573 4.0658C11.3124 3.6954 11.1041 3.38082 10.8324 3.1221C10.5667 2.85755 10.2437 2.65471 9.86328 2.51358C9.4889 2.36655 9.07531 2.2931 8.62241 2.2931H5.43432C4.97541 2.2931 4.55577 2.36655 4.17539 2.51358C3.80101 2.65471 3.47795 2.85755 3.20627 3.1221C2.93452 3.38082 2.72319 3.6954 2.57226 4.0658C2.42733 4.43036 2.35487 4.83899 2.35487 5.2917V7.70826C2.35487 8.16103 2.42733 8.57261 2.57226 8.94301C2.72319 9.30757 2.93452 9.62209 3.20627 9.88671C3.47795 10.1454 3.80101 10.3483 4.17539 10.4952C4.55577 10.6364 4.97541 10.7069 5.43432 10.7069H8.60435C9.06319 10.7069 9.47987 10.6364 9.85419 10.4952C10.2346 10.3483 10.5607 10.1454 10.8324 9.88671C11.1041 9.62209 11.3124 9.30757 11.4573 8.94301C11.6082 8.57261 11.6837 8.16103 11.6837 7.70826V5.2917ZM28.2946 12.8236H17.5528C17.3837 12.8236 17.2268 12.7942 17.0818 12.7354C16.9369 12.6766 16.8101 12.5972 16.7014 12.4973C16.5987 12.3914 16.5173 12.2679 16.4568 12.1269C16.3965 11.9857 16.3663 11.8329 16.3663 11.6683V0.176391H18.7212V10.5305H28.2946V12.8236ZM41.4277 0.176391L35.2774 12.3738C35.1809 12.5619 35.0363 12.7119 34.8429 12.8236C34.6557 12.9412 34.4474 13 34.2179 13C33.9945 13 33.7862 12.9412 33.593 12.8236C33.4059 12.7119 33.2609 12.5619 33.1583 12.3738L27.0175 0.176391H29.6531L34.2179 9.28698L38.8011 0.176391H41.4277ZM45.1319 12.8236H42.7768V0.176391H45.1319V12.8236ZM53.8178 4.69196L57.7848 0.176391H61L55.4118 6.51765L60.9635 12.8236H57.7663L53.8178 8.34328L49.8866 12.8236H46.6807L52.2238 6.51765L46.6622 0.176391H49.8508L53.8178 4.69196Z" fill="#9497B7"/>
</svg>
