<svg width="800" height="800" viewBox="0 0 800 800" fill="none" xmlns="http://www.w3.org/2000/svg">
<path d="M400 0C179.109 0 0 179.074 0 399.982C0 620.891 179.092 799.965 400 799.965C620.926 799.965 800 620.891 800 399.982C800 179.074 620.926 0 400 0ZM400 119.599C473.091 119.599 532.32 178.846 532.32 251.902C532.32 324.976 473.091 384.205 400 384.205C326.944 384.205 267.715 324.976 267.715 251.902C267.715 178.846 326.944 119.599 400 119.599ZM399.912 695.388C327.014 695.388 260.248 668.84 208.75 624.897C196.205 614.197 188.966 598.507 188.966 582.043C188.966 507.95 248.933 448.651 323.043 448.651H476.992C551.12 448.651 610.858 507.95 610.858 582.043C610.858 598.524 603.655 614.179 591.092 624.879C539.612 668.84 472.828 695.388 399.912 695.388Z" fill="#534667"/>
</svg>
