<svg width="44" height="35" viewBox="0 0 44 35" fill="none" xmlns="http://www.w3.org/2000/svg">
<path d="M2.99611 0.112473C1.54085 0.602821 0.616342 1.65617 0.222568 3.27251C0.0513618 4.01711 0 6.99554 0 17.6561V31.0954L0.479377 32.1305C0.992995 33.2384 1.81478 34.0556 3.01323 34.6368C3.74941 34.9818 4.21167 35 19.9626 35C32.3237 35 36.193 34.9455 36.347 34.7821C36.484 34.6368 36.5525 33.9285 36.5525 32.7843V31.0046H35.7821H35.0116V32.185V33.3655H19.5517H4.09182L3.20155 32.8933C0 31.2043 0.821789 26.7548 4.4856 25.9558L5.13618 25.8105L5.18754 15.8763L5.22178 5.94219H20.1167H35.0116V6.94106V7.93992H35.7821H36.5525V6.43254C36.5525 5.50633 36.4669 4.83436 36.347 4.70724C36.193 4.54379 32.4778 4.4893 20.6817 4.4893H5.2389L5.18754 2.25549L5.13618 0.0398254L4.28015 0.00350571C3.81789 -0.0146561 3.23579 0.0398254 2.99611 0.112473ZM4.02334 12.9342C4.02334 24.7753 4.02334 24.8298 3.68093 24.8298C3.13307 24.8298 2.10583 25.3383 1.5751 25.8831L1.09572 26.3553L1.14708 14.8411C1.19844 4.50746 1.23268 3.25435 1.48949 2.764C1.98599 1.78329 2.9105 1.07501 3.73229 1.05685C4.00622 1.03869 4.02334 1.72881 4.02334 12.9342Z" fill="#534667"/>
<path d="M11.1285 11.0273L10.2724 11.7356L9.89578 11.3542C9.48489 10.9547 9.05687 11.0092 8.86854 11.4814C8.76582 11.7719 9.9129 13.2067 10.2382 13.2067C10.3238 13.2067 10.8888 12.789 11.5051 12.2623C12.3954 11.4814 12.5837 11.2271 12.5495 10.8457C12.481 10.1738 12.0872 10.2101 11.1285 11.0273Z" fill="#534667"/>
<path d="M14.9633 11.0455C14.8264 11.3361 14.8264 11.554 14.9633 11.8628L15.1516 12.2986L20.5618 12.2623C26.5026 12.2078 26.4684 12.2078 26.2116 11.1545L26.1088 10.6641H20.6302C15.2372 10.6641 15.1688 10.6641 14.9633 11.0455Z" fill="#534667"/>
<path d="M34.5835 11.1908C32.7174 11.6811 31.7586 13.0613 31.7586 15.2952C31.7586 16.0761 31.673 16.6391 31.4847 16.9297C31.1423 17.4745 31.245 17.8559 32.1524 19.3814C33.3851 21.47 34.1213 22.1056 35.2684 22.1056C36.5867 22.1056 37.2201 21.5426 38.5726 19.0908C39.3088 17.7651 39.4287 17.2384 39.0863 16.8752C38.9664 16.7481 38.8979 16.2577 38.9322 15.6584C39.0349 13.4427 38.1104 11.8082 36.4668 11.2816C35.5765 11.0091 35.3711 10.991 34.5835 11.1908ZM35.4909 15.386C36.2785 15.5857 37.2544 15.7492 37.6653 15.7492H38.4186L38.2474 16.3304C38.059 17.075 38.059 17.2566 38.2474 17.1294C38.333 17.0568 38.5213 17.075 38.6754 17.1294C39.052 17.2747 38.9322 17.6561 38.0077 19.2725C36.9975 21.0341 36.4154 21.5789 35.4909 21.6879C34.4295 21.7969 33.8131 21.3065 32.7003 19.4904C31.6902 17.8559 31.5361 17.2202 32.1011 17.075C32.4092 16.9842 32.4435 16.8752 32.3407 16.1851C32.238 15.4223 32.2551 15.4041 32.803 15.2225C33.659 14.9683 33.933 14.9864 35.4909 15.386Z" fill="#534667"/>
<path d="M10.187 16.9115C10.187 17.2928 9.87881 17.4563 9.60489 17.2202C9.29671 16.9478 8.97142 17.3655 9.09127 17.874C9.15975 18.1464 9.09127 18.2735 8.83446 18.3462C8.3722 18.4733 8.3722 19.0182 8.81734 19.1453C9.17687 19.2542 9.27959 19.6538 8.98854 19.8354C8.66325 20.0352 9.15975 20.4892 9.55352 20.3621C9.79321 20.2894 9.98154 20.3621 10.187 20.6527C10.4952 21.0704 10.8718 21.0159 10.8718 20.5437C10.8718 20.3621 11.043 20.3076 11.4368 20.3258C11.9333 20.3802 11.9846 20.3439 11.9846 19.8354C11.9846 19.4722 12.0874 19.2724 12.2928 19.2361C12.6352 19.1634 12.6866 18.4733 12.3442 18.4733C12.036 18.4733 11.8819 18.0193 12.1045 17.7832C12.3955 17.4745 12.0703 17.1657 11.608 17.2928C11.2827 17.3655 11.1629 17.311 11.0944 17.0204C10.9917 16.5846 10.187 16.4938 10.187 16.9115ZM11.1115 18.2191C11.5053 18.6368 11.4539 19.1453 10.9745 19.4722C10.187 20.0352 9.31384 19.0182 9.9473 18.2735C10.3068 17.8558 10.752 17.8377 11.1115 18.2191Z" fill="#534667"/>
<path d="M14.9805 18.2736C14.7066 18.8184 14.7751 19.1453 15.186 19.4541C15.5113 19.7083 16.2646 19.7446 19.9455 19.7446C24.6708 19.7446 25.0817 19.672 25.0817 18.7639C25.0817 17.9467 24.9447 17.9285 19.9113 17.9285C15.3914 17.9285 15.1517 17.9467 14.9805 18.2736Z" fill="#534667"/>
<path d="M31.0738 22.7413C30.8341 22.8865 29.8583 23.3406 28.8995 23.7401C27.9408 24.1578 27.0334 24.6482 26.8964 24.8116C26.7252 25.0114 26.5711 25.6289 26.5026 26.3553L26.3999 27.554H29.9952H33.6077L32.7174 25.0114C32.238 23.613 31.7758 22.4688 31.673 22.4688C31.5874 22.487 31.3135 22.596 31.0738 22.7413Z" fill="#534667"/>
<path d="M38.316 23.504C38.1106 24.0852 37.7168 25.2293 37.4257 26.0466L36.9121 27.554H40.4561H44L43.9487 26.3372C43.8973 25.5562 43.7946 24.9932 43.6234 24.7935C43.4693 24.6119 42.7331 24.2123 41.9627 23.9036C41.2094 23.5948 40.2164 23.1408 39.7712 22.9047C39.3261 22.6686 38.8981 22.4688 38.8125 22.4688C38.744 22.4688 38.5214 22.941 38.316 23.504Z" fill="#534667"/>
<path d="M34.1555 23.9036C34.1555 24.4484 34.224 24.63 34.4808 24.7027C34.7719 24.7753 34.789 24.8843 34.6691 25.4836C34.6007 25.8831 34.4808 26.5006 34.4294 26.8638L34.3096 27.554H35.2855H36.2614L36.1586 27.0273C36.1073 26.7549 36.0045 26.1011 35.9361 25.5744C35.8333 24.7935 35.8676 24.6482 36.1073 24.6482C36.3127 24.6482 36.3812 24.4666 36.3812 23.9217V23.1953H35.2684H34.1555V23.9036Z" fill="#534667"/>
<path d="M10.1869 24.739C10.1869 24.9387 10.0328 24.9932 9.63905 24.9751C9.10832 24.9206 9.07407 24.9569 9.12544 25.5017C9.15968 25.9921 9.0912 26.101 8.81727 26.101C8.5947 26.101 8.47485 26.2282 8.47485 26.4643C8.47485 26.664 8.57758 26.8275 8.71454 26.8275C9.07407 26.8275 9.19392 27.1362 9.00559 27.5358C8.7659 28.008 9.19392 28.4438 9.57057 28.0988C9.77602 27.9353 9.86162 27.9716 10.0499 28.2622C10.3068 28.6981 10.8717 28.7707 10.8717 28.3712C10.8717 28.1714 11.0258 28.1169 11.4367 28.1351C11.9332 28.1896 11.9846 28.1533 11.9846 27.6447C11.9846 27.2815 12.0873 27.0817 12.2927 27.0454C12.6352 26.9728 12.6865 26.2827 12.3441 26.2827C12.0188 26.2827 11.8819 25.8286 12.1215 25.5744C12.2585 25.4291 12.2414 25.302 12.0359 25.0659C11.7962 24.8116 11.6935 24.8116 11.471 25.0114C11.2313 25.2112 11.1799 25.193 11.0943 24.8661C10.9916 24.3939 10.1869 24.2849 10.1869 24.739ZM11.2141 26.0102C11.471 26.3371 11.2998 27.1726 10.9573 27.3178C10.1869 27.6266 9.46785 26.8457 9.8445 26.101C10.0671 25.6652 10.8889 25.6107 11.2141 26.0102Z" fill="#534667"/>
<path d="M14.9633 26.1193C14.8264 26.4098 14.8264 26.6278 14.9633 26.9365L15.1516 27.3724L18.61 27.3361L22.0855 27.2816V26.5551V25.8287L18.6271 25.7742C15.2372 25.7379 15.1688 25.7379 14.9633 26.1193Z" fill="#534667"/>
</svg>
